<svg id="Capa_1" enable-background="new 0 0 512 512" height="512" viewBox="0 0 512 512" width="512" xmlns="http://www.w3.org/2000/svg"><g><g><path d="m332.5 222.5h-42.5v-75h42.5c20.711 0 37.5 16.789 37.5 37.5 0 20.711-16.789 37.5-37.5 37.5z" fill="#ffbb85"/></g><g><path d="m40 185c0-20.711 16.789-37.5 37.5-37.5h42.5v75h-42.5c-20.711 0-37.5-16.789-37.5-37.5z" fill="#fdd1a3"/></g><g><g><g><path d="m295 340h-15l-75 20-75-20h-15c-63.411 0-115 51.589-115 115v42c0 8.284 6.716 15 15 15h55l15-17 15 17h212c8.284 0 98-6.716 98-15v-42c0-63.411-51.589-115-115-115z" fill="#c7eb4b"/><path d="m295 340h-15l-75 20v152h107c8.284 0 98-6.716 98-15v-42c0-63.411-51.589-115-115-115z" fill="#00cc71"/></g><path d="m250 340v-49.501h-90v49.501h-30v15c0 41.421 33.579 75 75 75 41.421 0 75-33.579 75-75v-15z" fill="#fdd1a3"/><path d="m280 340h-30v-49.501h-45v139.501c41.421 0 75-33.579 75-75z" fill="#ffbb85"/><g><path d="m85 445c-8.284 0-15 6.716-15 15v52h30v-52c0-8.284-6.716-15-15-15z" fill="#00cc71"/></g></g></g><path d="m205 330c-63.513 0-115-51.487-115-115v-93.414c0-8.284 6.716-15 15-15h195l20 93.414v15c0 63.513-51.487 115-115 115z" fill="#ffe4c1"/><g><path d="m300 106.586h-95v223.414c63.513 0 115-51.487 115-115v-15z" fill="#fdd1a3"/></g><path d="m320 200h-15c-27.614 0-50-22.386-50-50v-10h-130c-41.306 0-74.921-33.566-75-74.854-.068-35.831 29.89-65.146 65.72-65.146h38.928c3.996 0 7.923 1.423 10.783 4.214 4.804 4.688 5.854 11.756 2.985 17.494-2.844 5.688-.561 10.495.553 12.298 1.114 1.802 4.392 5.994 10.751 5.994h85.28c30.376 0 55 24.624 55 55z" fill="#fdbf00"/><g><path d="m265 40h-60v100h50v10c0 27.614 22.386 50 50 50h15v-105c0-30.376-24.624-55-55-55z" fill="#ff8856"/></g><path d="m467 512h-155v-205c0-24.853 20.147-45 45-45h110c24.853 0 45 20.147 45 45v160c0 24.853-20.147 45-45 45z" fill="#f9f1f1"/><g><path d="m467 262h-55v250h55c24.853 0 45-20.147 45-45v-160c0-24.853-20.147-45-45-45z" fill="#e2dff4"/></g><path d="m437 392h-50c-8.284 0-15-6.716-15-15s6.716-15 15-15h50c8.284 0 15 6.716 15 15s-6.716 15-15 15z" fill="#0052be"/><path d="m437 452h-50c-8.284 0-15-6.716-15-15s6.716-15 15-15h50c8.284 0 15 6.716 15 15s-6.716 15-15 15z" fill="#0052be"/><path d="m447 292h-70c-8.284 0-15-6.716-15-15v-10c0-19.299 15.701-35 35-35h30c19.299 0 35 15.701 35 35v10c0 8.284-6.716 15-15 15z" fill="#ffde46"/><path d="m427 232h-15v60h35c8.284 0 15-6.716 15-15v-10c0-19.299-15.701-35-35-35z" fill="#fdbf00"/><g><g fill="#00337a"><path d="m437 392c8.284 0 15-6.716 15-15s-6.716-15-15-15h-25v30z"/><path d="m437 452c8.284 0 15-6.716 15-15s-6.716-15-15-15h-25v30z"/></g></g></g></svg>